<svg xmlns="http://www.w3.org/2000/svg" viewBox="0 0 462.3 150.9"><defs><style>.cls-1{fill:#fff}</style></defs><g id="Layer_2" data-name="Layer 2"><g id="Layer_1-2" data-name="Layer 1"><path class="cls-1" d="M141.9 55.9H130v-3.7h27.8v3.7h-11.9v31.7h-4V55.9m30.5-3.7h4V68h20.4V52.2h4v35.4h-4V71.7h-20.4v15.9h-4zm46.6 0h25.6v3.6H223V68h19.3v3.6H223V84h21.9v3.6H219zm57.2 0h4V84h19.9v3.7h-23.9zm49.5-.2h3.7l16.1 35.7h-4.3l-4.2-9.4h-19.3l-4.2 9.4h-4.1L325.7 52m9.8 22.6l-8-18-8.1 18h16.1m20.1-22.4h4l12.9 19.3 12.9-19.3h4v35.4h-4V59l-12.9 19h-.2l-12.8-19v28.6h-3.9zm49 0h13.3c8 0 13.3 4.3 13.3 11.2v.1c0 7.6-6.4 11.6-13.9 11.6h-8.6v12.5h-4l-.1-35.4zm12.7 19.3c5.9 0 9.7-3.1 9.7-7.8v-.1c0-5.1-3.8-7.7-9.5-7.7h-9v15.6h8.8m-370.9 62c0 2.8-1.5 5.1-3.3 5.1s-3.3-2.3-3.3-5.1 1.5-5.1 3.3-5.1 3.3 2.2 3.3 5.1m-.9 13.2c0 2.3-1.2 4.2-2.7 4.2s-2.7-1.9-2.7-4.2 1.2-4.2 2.7-4.2 2.7 1.9 2.7 4.2m0-52c0 2.3-1.2 4.2-2.7 4.2s-2.7-1.9-2.7-4.2 1.2-4.2 2.7-4.2 2.7 1.9 2.7 4.2M45.3 84c0 1.8-1 3.3-2.2 3.3s-2.2-1.5-2.2-3.3 1-3.3 2.2-3.3 2.2 1.5 2.2 3.3m-.4-10.5c0 1.6-.9 3-2 3s-2-1.3-2-3 .9-3 2-3 2 1.4 2 3m0-9.5c0 1.5-.8 2.7-1.8 2.7s-1.8-1.2-1.8-2.7.8-2.7 1.8-2.7 1.8 1.2 1.8 2.7m-.5-9.2c0 1.2-.6 2.1-1.4 2.1s-1.4-1-1.4-2.1.6-2.1 1.4-2.1 1.4.9 1.4 2.1m.5-25.4c0-1.6-.9-3-2-3s-2 1.3-2 3 .9 3 2 3 2-1.4 2-3m0 9.6c0-1.5-.8-2.7-1.8-2.7s-1.8 1.2-1.8 2.7.8 2.7 1.8 2.7 1.8-1.2 1.8-2.7m-.5 9.2c0-1.2-.6-2.1-1.4-2.1s-1.4 1-1.4 2.1.6 2.1 1.4 2.1 1.4-1 1.4-2.1"/><path class="cls-1" d="M38.7 29.4c0-1.6-.9-3-2-3s-2 1.3-2 3 .9 3 2 3 2-1.4 2-3" id="_0" data-name="0"/><path class="cls-1" d="M38.7 39c0-1.5-.8-2.7-1.8-2.7s-1.8 1.2-1.8 2.7.8 2.7 1.8 2.7 1.8-1.2 1.8-2.7" id="_1" data-name="1"/><path class="cls-1" d="M38.2 48.2c0-1.2-.6-2.1-1.4-2.1s-1.4 1-1.4 2.1.6 2.1 1.4 2.1 1.4-1 1.4-2.1" id="_2" data-name="2"/><path class="cls-1" d="M38.7 29.4c0-1.6-.9-3-2-3s-2 1.3-2 3 .9 3 2 3 2-1.4 2-3" id="_0-2" data-name="0"/><path class="cls-1" d="M38.7 39c0-1.5-.8-2.7-1.8-2.7s-1.8 1.2-1.8 2.7.8 2.7 1.8 2.7 1.8-1.2 1.8-2.7" id="_1-2" data-name="1"/><path class="cls-1" d="M38.2 48.2c0-1.2-.6-2.1-1.4-2.1s-1.4 1-1.4 2.1.6 2.1 1.4 2.1 1.4-1 1.4-2.1" id="_2-2" data-name="2"/><path class="cls-1" d="M30.5 39c0-1.5-.7-2.7-1.7-2.7s-1.7 1.2-1.7 2.7.8 2.7 1.7 2.7 1.7-1.2 1.7-2.7m-.5 9.2c0-1.2-.6-2.1-1.3-2.1s-1.3 1-1.3 2.1.6 2.1 1.3 2.1 1.3-1 1.3-2.1"/><path class="cls-1" d="M48.1 29.4c0-1.6.9-3 2-3s2 1.3 2 3-.9 3-2 3-2-1.4-2-3" id="_3" data-name="3"/><path class="cls-1" d="M48.1 39c0-1.5.8-2.7 1.8-2.7s1.8 1.2 1.8 2.7-.8 2.7-1.8 2.7-1.8-1.2-1.8-2.7" id="_4" data-name="4"/><path class="cls-1" d="M48.6 48.2c0-1.2.6-2.1 1.4-2.1s1.4 1 1.4 2.1-.6 2.1-1.4 2.1-1.4-1-1.4-2.1" id="_5" data-name="5"/><path class="cls-1" d="M48.1 29.4c0-1.6.9-3 2-3s2 1.3 2 3-.9 3-2 3-2-1.4-2-3" id="_3-2" data-name="3"/><path class="cls-1" d="M48.1 39c0-1.5.8-2.7 1.8-2.7s1.8 1.2 1.8 2.7-.8 2.7-1.8 2.7-1.8-1.2-1.8-2.7" id="_4-2" data-name="4"/><path class="cls-1" d="M48.6 48.2c0-1.2.6-2.1 1.4-2.1s1.4 1 1.4 2.1-.6 2.1-1.4 2.1-1.4-1-1.4-2.1" id="_5-2" data-name="5"/><path class="cls-1" d="M56.3 39c0-1.5.7-2.7 1.7-2.7s1.7 1.2 1.7 2.7-.7 2.7-1.7 2.7-1.7-1.2-1.7-2.7m.5 9.2c0-1.2.6-2.1 1.3-2.1s1.3 1 1.3 2.1-.6 2.1-1.3 2.1-1.3-1-1.3-2.1M46.4 107c0 2.8-1.5 5.1-3.3 5.1s-3.3-2.3-3.3-5.1 1.5-5.1 3.3-5.1 3.3 2.3 3.3 5.1m.2 12.9c0 3-1.6 5.4-3.5 5.4s-3.5-2.4-3.5-5.4 1.6-5.4 3.5-5.4 3.5 2.5 3.5 5.4m-9.8 11.9c0 2.5-1.4 4.6-3 4.6s-3-2.1-3-4.6 1.4-4.6 3-4.6 3 2 3 4.6m.6 10.7c0 2-1.1 3.6-2.4 3.6s-2.4-1.6-2.4-3.6 1.1-3.6 2.4-3.6 2.4 1.6 2.4 3.6m.6-47.1c0 2.3-1.2 4.1-2.7 4.1s-2.7-1.8-2.7-4.1 1.2-4.1 2.7-4.1 2.7 1.8 2.7 4.1m1.1-10.5c0 1.8-.9 3.2-2.1 3.2s-2.1-1.4-2.1-3.2.9-3.2 2.1-3.2 2.1 1.4 2.1 3.2m.3-8.3c0 1.6-.9 2.9-1.9 2.9s-1.9-1.3-1.9-2.9.9-2.9 1.9-2.9 1.9 1.3 1.9 2.9m.6-8.7c0 1.5-.8 2.7-1.8 2.7s-1.8-1.2-1.8-2.7.8-2.7 1.8-2.7 1.8 1.2 1.8 2.7m.1-7.7c0 1.1-.6 2.1-1.4 2.1s-1.4-.9-1.4-2.1.6-2.1 1.4-2.1 1.4 1 1.4 2.1m-.4-5.9c0 .8-.4 1.4-.9 1.4s-.9-.6-.9-1.4.4-1.4.9-1.4a1.4 1.4 0 0 1 .9 1.4m-2.6 53.3c0 2.5-1.4 4.6-3 4.6s-3-2.1-3-4.6 1.4-4.6 3-4.6 3 2 3 4.6m-1.7 12.3c0 2.7-1.4 4.9-3.2 4.9s-3.2-2.2-3.2-4.9 1.4-4.9 3.2-4.9 3.2 2.2 3.2 4.9m-8.3 7.8c0 2.3-1.2 4.1-2.7 4.1s-2.7-1.9-2.7-4.1 1.2-4.2 2.7-4.2 2.7 1.9 2.7 4.2m1.9 9.6c0 1.8-1 3.2-2.1 3.2s-2.1-1.5-2.1-3.2.9-3.2 2.1-3.2 2.1 1.4 2.1 3.2m.5-40.3c0 1.6-.8 2.9-1.9 2.9s-1.9-1.3-1.9-2.9.8-2.9 1.9-2.9 1.9 1.3 1.9 2.9m1.7-9.7c0 1.3-.7 2.4-1.6 2.4S28 88.6 28 87.3s.7-2.4 1.6-2.4 1.6 1.1 1.6 2.4m1.5-8.4c0 1.2-.6 2.1-1.4 2.1s-1.4-1-1.4-2.1.6-2.1 1.4-2.1 1.4.9 1.4 2.1m1.2-8.1c0 1.1-.6 1.9-1.3 1.9s-1.3-.9-1.3-1.9.6-1.9 1.3-1.9 1.3.8 1.3 1.9m1.4-7.5c0 .8-.4 1.5-1 1.5s-1-.7-1-1.5.4-1.5 1-1.5a1.5 1.5 0 0 1 1 1.5m-.3-5.5c0 .5-.3 1-.6 1s-.6-.4-.6-1 .3-1 .6-1 .6.5.6 1m0-4.5c0 .5-.3 1-.6 1s-.6-.4-.6-1 .3-1 .6-1 .6.5.6 1m-6.9 53.2c0 2-1 3.5-2.3 3.5s-2.3-1.6-2.3-3.5 1-3.5 2.3-3.5 2.3 1.6 2.3 3.5m-3.5 9.9c0 2.4-1.3 4.4-2.9 4.4s-2.9-2-2.9-4.4 1.3-4.4 2.9-4.4 2.9 1.9 2.9 4.4m-2.8 17.1c0 1.2-.7 2.2-1.5 2.2s-1.5-1-1.5-2.2.7-2.2 1.5-2.2 1.5 1 1.5 2.2m-4.4-6.8c0 1.8-.9 3.2-2.1 3.2s-2.1-1.5-2.1-3.2.9-3.2 2.1-3.2 2.1 1.4 2.1 3.2m4.4-21.9c0 1-.6 1.9-1.2 1.9s-1.2-.8-1.2-1.9.6-1.9 1.2-1.9 1.2.9 1.2 1.9m-4.5 6.1c0 1.6-.8 2.9-1.9 2.9s-1.9-1.3-1.9-2.9.8-2.9 1.9-2.9 1.9 1.3 1.9 2.9m-4.8 5.5c0 2.4-1.3 4.4-2.9 4.4s-2.9-2-2.9-4.4S8 112 9.6 112s2.9 1.9 2.9 4.4m37.1 14.7c0 2.5 1.3 4.6 3 4.6s3-2.1 3-4.6-1.4-4.6-3-4.6-3 2.1-3 4.6m-.7 10.7c0 2 1.1 3.6 2.4 3.6s2.4-1.6 2.4-3.6-1.1-3.6-2.4-3.6-2.4 1.6-2.4 3.6m-.6-47.1c0 2.3 1.2 4.1 2.7 4.1s2.7-1.8 2.7-4.1-1.2-4.1-2.7-4.1-2.7 1.9-2.7 4.1m-1.1-10.4c0 1.8.9 3.2 2.1 3.2s2.1-1.4 2.1-3.2-.9-3.2-2.1-3.2-2.1 1.4-2.1 3.2M47 76c0 1.6.9 2.9 1.9 2.9s1.9-1.3 1.9-2.9-.9-2.9-1.9-2.9S47 74.4 47 76m-.7-8.8c0 1.5.8 2.7 1.8 2.7s1.8-1.2 1.8-2.7-.8-2.7-1.8-2.7-1.8 1.3-1.8 2.7m-.1-7.6c0 1.1.6 2.1 1.4 2.1s1.4-.9 1.4-2.1-.6-2.1-1.4-2.1-1.4.9-1.4 2.1m.4-5.9c0 .8.4 1.4.9 1.4s.9-.6.9-1.4-.4-1.4-.9-1.4-.9.6-.9 1.4m2.6 53.2c0 2.5 1.4 4.6 3 4.6s3-2.1 3-4.6-1.4-4.6-3-4.6-3 2.1-3 4.6m1.7 12.4c0 2.7 1.4 4.9 3.2 4.9s3.2-2.2 3.2-4.9-1.4-4.9-3.2-4.9-3.2 2.2-3.2 4.9m8.3 7.7c0 2.3 1.2 4.1 2.7 4.1s2.7-1.9 2.7-4.1-1.2-4.1-2.7-4.1-2.7 1.8-2.7 4.1m-1.9 9.6c0 1.8.9 3.2 2.1 3.2s2.1-1.5 2.1-3.2-.9-3.2-2.1-3.2-2.1 1.4-2.1 3.2m-.5-40.2c0 1.6.8 2.9 1.9 2.9s1.9-1.3 1.9-2.9-.8-2.9-1.9-2.9-1.9 1.3-1.9 2.9m-1.7-9.7c0 1.3.7 2.4 1.6 2.4s1.6-1.1 1.6-2.4-.7-2.4-1.6-2.4-1.6 1-1.6 2.4m-1.5-8.5c0 1.2.6 2.1 1.4 2.1s1.4-1 1.4-2.1-.6-2.1-1.4-2.1-1.4 1-1.4 2.1m-1.2-8.1c0 1.1.6 1.9 1.3 1.9s1.3-.9 1.3-1.9-.6-1.9-1.3-1.9-1.3.9-1.3 1.9M51 62.7c0 .8.4 1.5 1 1.5s1-.7 1-1.5-.4-1.5-1-1.5-1 .7-1 1.5m.3-5.5c0 .5.3 1 .6 1s.6-.4.6-1-.3-1-.6-1-.6.4-.6 1m0-4.5c0 .5.3 1 .6 1s.6-.4.6-1-.3-1-.6-1-.6.4-.6 1m7 53.2c0 2 1 3.5 2.3 3.5s2.3-1.6 2.3-3.5-1-3.5-2.3-3.5-2.3 1.5-2.3 3.5m3.4 9.8c0 2.4 1.3 4.4 2.9 4.4s2.9-2 2.9-4.4-1.3-4.4-2.9-4.4-2.9 2-2.9 4.4m2.9 17.2c0 1.2.7 2.2 1.5 2.2s1.5-1 1.5-2.2-.7-2.2-1.5-2.2-1.5 1-1.5 2.2m4.4-6.8c0 1.8 1 3.2 2.1 3.2s2.1-1.5 2.1-3.2-1-3.2-2.1-3.2-2.1 1.4-2.1 3.2m-4.5-21.9c0 1 .6 1.9 1.2 1.9s1.2-.8 1.2-1.9-.6-1.9-1.2-1.9-1.2.8-1.2 1.9m4.5 6c0 1.6.8 2.9 1.9 2.9s1.9-1.3 1.9-2.9-.8-2.9-1.9-2.9-1.9 1.3-1.9 2.9m4.8 5.5c0 2.4 1.3 4.4 2.9 4.4s2.9-2 2.9-4.4-1.3-4.4-2.9-4.4-2.9 2-2.9 4.4m-67.9 9.4a1.7 1.7 0 0 1-1.6 1.9 1.8 1.8 0 0 1-1.6-1.9 1.7 1.7 0 0 1 1.6-1.9 1.8 1.8 0 0 1 1.6 1.9M2 132.5a1 1 0 1 1-1-1 1 1 0 0 1 1 1m77-7.4a1.7 1.7 0 0 0 1.6 1.9 1.8 1.8 0 0 0 1.6-1.9 1.7 1.7 0 0 0-1.6-1.9 1.8 1.8 0 0 0-1.6 1.9m3.9 7.4a1 1 0 1 0 1-1 1 1 0 0 0-1 1M44.2 20.4c0 .9-.5 1.7-1.2 1.7s-1.2-.8-1.2-1.7.5-1.7 1.2-1.7 1.2.7 1.2 1.7m-.3-8.4a1 1 0 0 1-.9 1 1 1 0 0 1-.9-1 1 1 0 0 1 .9-1c.5-.1.9.4.9 1m0-11a1 1 0 0 1-.9 1 1 1 0 0 1-.9-1 1 1 0 0 1 .9-1 1 1 0 0 1 .9 1m46.8 116.8h-1.8v-17.5h1.8v7.3a6.5 6.5 0 0 1 1.6-1.7 5.2 5.2 0 0 1 4.6-.3 4 4 0 0 1 1.5 1 4.2 4.2 0 0 1 .9 1.6 6.5 6.5 0 0 1 .3 2v7.7h-1.8v-7.2a3.7 3.7 0 0 0-.9-2.7 3.4 3.4 0 0 0-2.5-1 4 4 0 0 0-1.5.3 2.5 2.5 0 0 0-1.2.8 5 5 0 0 0-.8 1.2 4.2 4.2 0 0 0-.3 1.6v6.9zm29-3.7a6.4 6.4 0 0 1-3.5 3.5 7 7 0 0 1-5.2 0 4.8 4.8 0 0 1-2-1.4 5.7 5.7 0 0 1-1.3-2.1 6.5 6.5 0 0 1 0-5 7.4 7.4 0 0 1 1.3-2.1 6 6 0 0 1 2.1-1.4 7 7 0 0 1 5.2 0 6 6 0 0 1 2.1 1.4 5.7 5.7 0 0 1 1.3 2.1 6.5 6.5 0 0 1 0 5zm-1.7-4.3a4.8 4.8 0 0 0-4.3-2.9 3.4 3.4 0 0 0-1.8.4 3.6 3.6 0 0 0-1.4 1 3.8 3.8 0 0 0-.9 1.5 6.2 6.2 0 0 0 0 3.8 4.8 4.8 0 0 0 4.3 2.9 3.4 3.4 0 0 0 1.8-.4 3.6 3.6 0 0 0 1.4-1 3.8 3.8 0 0 0 .9-1.5 6.2 6.2 0 0 0 0-3.8zm12.5 4.5a1.8 1.8 0 0 0 .6 1.6 2.5 2.5 0 0 0 1.5.5 2.8 2.8 0 0 0 .9-.1l.9-.3v1.6a4.2 4.2 0 0 1-1 .4 4.9 4.9 0 0 1-1.2.1 5.9 5.9 0 0 1-1.4-.2 2.4 2.4 0 0 1-1.1-.6 2.1 2.1 0 0 1-.7-1.1 3.8 3.8 0 0 1-.3-1.6v-7.5h-1.8v-1.6h1.7v-3.8h1.8v3.7h3.9v1.6h-3.9v7.3zm12.9-.2a4.5 4.5 0 0 0 1 1.3 3.5 3.5 0 0 0 1.3.8 4.2 4.2 0 0 0 1.6.3 4.8 4.8 0 0 0 2.2-.5 5.2 5.2 0 0 0 1.7-1.3l1.2 1a6.8 6.8 0 0 1-2.1 1.7 6.7 6.7 0 0 1-3 .6 6.6 6.6 0 0 1-4.4-1.8 5.7 5.7 0 0 1-1.3-2.1 7.5 7.5 0 0 1-.5-2.6 6.9 6.9 0 0 1 .4-2.5 7.2 7.2 0 0 1 1.2-2.1 6.7 6.7 0 0 1 1.9-1.4 4.7 4.7 0 0 1 2.4-.5 6 6 0 0 1 2.4.5 4.9 4.9 0 0 1 1.8 1.4 5.3 5.3 0 0 1 1.1 2.1 7.5 7.5 0 0 1 .4 2.6v.6h-9.8a4.8 4.8 0 0 0 .5 1.9zm7.4-3.2a7.6 7.6 0 0 0-.3-1.6 2.9 2.9 0 0 0-.8-1.3 2.7 2.7 0 0 0-1.2-.9 4.2 4.2 0 0 0-1.6-.3 4 4 0 0 0-1.5.3 2.7 2.7 0 0 0-1.2.9 14.6 14.6 0 0 0-.9 1.3 4.7 4.7 0 0 0-.4 1.7h7.9zm9.8 6.9v-17.5h1.8v17.5zm28.8-7.2a3.5 3.5 0 0 1-1.7 1.7 2.5 2.5 0 0 1-2.4 0 3.5 3.5 0 0 1-1.7-1.7 2.5 2.5 0 0 1 0-2.4 3.5 3.5 0 0 1 1.7-1.7 2.5 2.5 0 0 1 2.4 0 3.5 3.5 0 0 1 1.7 1.7 2.7 2.7 0 0 1 .3 1.2zm29.1 5.3a3.5 3.5 0 0 1-.9 1.2 3.7 3.7 0 0 1-1.4.7 4.7 4.7 0 0 1-1.7.3 8.6 8.6 0 0 1-2.7-.5 9.2 9.2 0 0 1-2.4-1.3l.9-1.3a11.3 11.3 0 0 0 2.1 1.2 5.7 5.7 0 0 0 2.2.4 3 3 0 0 0 1.8-.5 1.8 1.8 0 0 0 .7-1.4 1.1 1.1 0 0 0-.3-.8 4.3 4.3 0 0 0-.7-.6 3 3 0 0 0-1-.4 5.6 5.6 0 0 1-1.2-.4 8.8 8.8 0 0 1-1.5-.5l-1.3-.6a4.7 4.7 0 0 1-1-1 2.3 2.3 0 0 1-.4-1.4 4 4 0 0 1 .3-1.5 3.1 3.1 0 0 1 .9-1.1 3.3 3.3 0 0 1 1.3-.7 4.7 4.7 0 0 1 1.7-.3 6.2 6.2 0 0 1 2.3.4 6.8 6.8 0 0 1 2.1 1l-.8 1.4a7.6 7.6 0 0 0-1.8-.9 6.3 6.3 0 0 0-1.9-.3 3.5 3.5 0 0 0-1.8.5 1.6 1.6 0 0 0-.6 1.3 1.3 1.3 0 0 0 .3.8 4.3 4.3 0 0 0 .7.6 3 3 0 0 0 1 .4l1.2.4a5.8 5.8 0 0 1 1.4.5 5.4 5.4 0 0 1 1.3.7 2.8 2.8 0 0 1 .9 1 3.2 3.2 0 0 1 .3 1.4 1 1 0 0 1 0 1.3zm20.3-1.5a5.8 5.8 0 0 1-1.3 2 5.9 5.9 0 0 1-1.9 1.3 5.4 5.4 0 0 1-2.2.4 7.8 7.8 0 0 1-1.6-.2 3.1 3.1 0 0 1-1.3-.6 4 4 0 0 1-1-.8 7 7 0 0 1-.8-1v6.2h-1.8v-16.2h1.8v2.5a8.7 8.7 0 0 1 .9-1.1l1-.9c.3-.3.8-.4 1.3-.6a4.1 4.1 0 0 1 1.6-.2 5.7 5.7 0 0 1 2.2.4 5.9 5.9 0 0 1 1.9 1.3 5.3 5.3 0 0 1 1.3 2 7.6 7.6 0 0 1 .5 2.7 11.5 11.5 0 0 1-.6 2.8zm-1.8-4.7a3.8 3.8 0 0 0-.9-1.5 7.1 7.1 0 0 0-1.4-1 3.2 3.2 0 0 0-1.7-.3 5 5 0 0 0-1.7.3 4.5 4.5 0 0 0-1.4 1 4 4 0 0 0-1 1.5 6 6 0 0 0-.4 2 4.5 4.5 0 0 0 .4 2 4 4 0 0 0 1 1.5 7.1 7.1 0 0 0 1.4 1 5 5 0 0 0 3.4 0 4.2 4.2 0 0 0 1.4-.9 3.8 3.8 0 0 0 .9-1.5 6.5 6.5 0 0 0 .3-2 3.5 3.5 0 0 0-.3-2.1zm12.6-2.6a13.4 13.4 0 0 0-1.8.7l-.6-1.5a18 18 0 0 1 2.1-.8 8.8 8.8 0 0 1 2.4-.3 5.3 5.3 0 0 1 3.9 1.3 5 5 0 0 1 1.4 3.7v7.6h-1.8v-1.9a5 5 0 0 1-1.7 1.5 5.4 5.4 0 0 1-2.7.6 9.8 9.8 0 0 1-1.7-.2 6.9 6.9 0 0 1-1.5-.7 4.3 4.3 0 0 1-1.1-1.2 3.8 3.8 0 0 1 0-3.4 4.5 4.5 0 0 1 1.1-1.3 6.7 6.7 0 0 1 1.7-.8 7.1 7.1 0 0 1 2.1-.3 13.4 13.4 0 0 1 2.1.1 8.5 8.5 0 0 1 1.7.4v-.4a3 3 0 0 0-1-2.5 3.8 3.8 0 0 0-2.7-.9zm-.6 5.1a2.3 2.3 0 0 0-.9 1.9 2 2 0 0 0 .3 1.1 2.7 2.7 0 0 0 .7.8 3.1 3.1 0 0 0 1 .5 5 5 0 0 0 1.2.2 4.2 4.2 0 0 0 1.6-.3 5.4 5.4 0 0 0 1.3-.7 2.4 2.4 0 0 0 .9-1.1 3.2 3.2 0 0 0 .3-1.4V112a12.4 12.4 0 0 1-1.6-.4 12.3 12.3 0 0 0-2-.2 5.8 5.8 0 0 0-2.8.8zm34.7-1.6a3.5 3.5 0 0 1-1.7 1.7 2.5 2.5 0 0 1-2.4 0 3.5 3.5 0 0 1-1.7-1.7 2.5 2.5 0 0 1 0-2.4 3.5 3.5 0 0 1 1.7-1.7 2.5 2.5 0 0 1 2.4 0 3.5 3.5 0 0 1 1.7 1.7 2.7 2.7 0 0 1 .3 1.2zm22.8 7.2h-1.8v-12.4h1.8v3.2a6.4 6.4 0 0 1 .8-1.4 4.3 4.3 0 0 1 1.2-1.1 6.1 6.1 0 0 1 1.4-.7 4.7 4.7 0 0 1 1.7-.2v2h-.1a4 4 0 0 0-1.9.4 4.2 4.2 0 0 0-1.6 1.1 7.8 7.8 0 0 0-1.1 1.8 6.3 6.3 0 0 0-.4 2.5zm13.4-3.7a4.5 4.5 0 0 0 1 1.3 3.5 3.5 0 0 0 1.3.8 4.2 4.2 0 0 0 1.6.3 4.8 4.8 0 0 0 2.2-.5 5.2 5.2 0 0 0 1.7-1.3l1.2 1a6.8 6.8 0 0 1-2.1 1.7 6.7 6.7 0 0 1-3 .6 6.6 6.6 0 0 1-4.4-1.8 5.7 5.7 0 0 1-1.3-2.1 7.5 7.5 0 0 1-.5-2.6 6.9 6.9 0 0 1 .4-2.5 7.2 7.2 0 0 1 1.2-2.1 6.7 6.7 0 0 1 1.9-1.4 6 6 0 0 1 4.8 0 4.9 4.9 0 0 1 1.8 1.4 5.3 5.3 0 0 1 1.1 2.1 7.5 7.5 0 0 1 .4 2.6v.6h-9.8a4.8 4.8 0 0 0 .5 1.9zm7.5-3.2a7.6 7.6 0 0 0-.3-1.6 2.9 2.9 0 0 0-.8-1.3 5.4 5.4 0 0 0-1.2-.9 4.2 4.2 0 0 0-1.6-.3 4 4 0 0 0-1.5.3 2.7 2.7 0 0 0-1.2.9 14.6 14.6 0 0 0-.9 1.3 4.7 4.7 0 0 0-.4 1.7h7.9zm17.7 5a3.5 3.5 0 0 1-.9 1.2 3.7 3.7 0 0 1-1.4.7 6.3 6.3 0 0 1-4.4-.2 9.2 9.2 0 0 1-2.4-1.3l.9-1.3a11.3 11.3 0 0 0 2.1 1.2 5.7 5.7 0 0 0 2.2.4 3 3 0 0 0 1.8-.5 1.6 1.6 0 0 0 .7-1.4 1.1 1.1 0 0 0-.3-.8 4.3 4.3 0 0 0-.7-.6 3 3 0 0 0-1-.4 5.6 5.6 0 0 1-1.2-.4 8.8 8.8 0 0 1-1.5-.5l-1.3-.6a4.7 4.7 0 0 1-1-1 2.3 2.3 0 0 1-.4-1.4 4 4 0 0 1 .3-1.5 3.1 3.1 0 0 1 .9-1.1 3.3 3.3 0 0 1 1.3-.7 8.6 8.6 0 0 1 1.7-.3 6.2 6.2 0 0 1 2.3.4 6.8 6.8 0 0 1 2.1 1l-.8 1.4a7.6 7.6 0 0 0-1.8-.9 6.3 6.3 0 0 0-1.9-.3 3.5 3.5 0 0 0-1.8.5 1.6 1.6 0 0 0-.6 1.3 1.3 1.3 0 0 0 .3.8 2 2 0 0 0 .7.6 3 3 0 0 0 1 .4l1.2.4a5.8 5.8 0 0 1 1.4.5 5.4 5.4 0 0 1 1.3.7 2.8 2.8 0 0 1 .9 1 3.2 3.2 0 0 1 .3 1.4c.3.3.2.9 0 1.3zm10.5-1.6a1.8 1.8 0 0 0 .6 1.6 2.5 2.5 0 0 0 1.5.5 2.8 2.8 0 0 0 .9-.1l.9-.3v1.6a4.2 4.2 0 0 1-1 .4 4.5 4.5 0 0 1-1.2.1 5.9 5.9 0 0 1-1.4-.2 2.4 2.4 0 0 1-1.1-.6 2.1 2.1 0 0 1-.7-1.1 7.6 7.6 0 0 1-.3-1.6v-7.5h-1.7v-1.6h1.7v-3.8h1.8v3.7h3.9v1.6h-3.9v7.3zm14.1-7.2a13.4 13.4 0 0 0-1.8.7l-.6-1.5a18 18 0 0 1 2.1-.8 8.8 8.8 0 0 1 2.4-.3 5.3 5.3 0 0 1 3.9 1.3 4.8 4.8 0 0 1 1.4 3.7v7.6h-1.8v-1.9a5 5 0 0 1-1.7 1.5 5.4 5.4 0 0 1-2.7.6 9.8 9.8 0 0 1-1.7-.2 6.9 6.9 0 0 1-1.5-.7 4.3 4.3 0 0 1-1.1-1.2 3.8 3.8 0 0 1 0-3.4 4.2 4.2 0 0 1 2.8-2.1 7.1 7.1 0 0 1 2.1-.3 13.4 13.4 0 0 1 2.1.1 8.5 8.5 0 0 1 1.7.4v-.4a3 3 0 0 0-1-2.5 3.8 3.8 0 0 0-2.7-.9zm-.6 5.1a2.3 2.3 0 0 0-.9 1.9 2 2 0 0 0 .3 1.1 2.7 2.7 0 0 0 .7.8 3.1 3.1 0 0 0 1 .5 5 5 0 0 0 1.2.2 4.2 4.2 0 0 0 1.6-.3 5.4 5.4 0 0 0 1.3-.7 2.4 2.4 0 0 0 .9-1.1 3.2 3.2 0 0 0 .3-1.4V112a12.4 12.4 0 0 1-1.6-.4 12.3 12.3 0 0 0-2-.2 5.8 5.8 0 0 0-2.8.8zm25.3-6.8h1.8v12.4h-1.8v-2.1a6.5 6.5 0 0 1-1.6 1.7 5.2 5.2 0 0 1-4.6.3 4 4 0 0 1-1.5-1 4.2 4.2 0 0 1-.9-1.6 6.5 6.5 0 0 1-.3-2v-7.7h1.8v7.2a3.7 3.7 0 0 0 .9 2.7 3.4 3.4 0 0 0 2.5 1 4 4 0 0 0 1.5-.3 3.2 3.2 0 0 0 1.2-.8 3.8 3.8 0 0 0 1.1-2.8v-7zm12.2 12.4h-1.8v-12.4h1.8v3.2a6.4 6.4 0 0 1 .8-1.4 4.3 4.3 0 0 1 1.2-1.1 6.1 6.1 0 0 1 1.4-.7 4.7 4.7 0 0 1 1.7-.2v2h-.1a4 4 0 0 0-1.9.4 4.2 4.2 0 0 0-1.6 1.1 7.8 7.8 0 0 0-1.1 1.8 6.3 6.3 0 0 0-.4 2.5zm14.2-10.7a13.4 13.4 0 0 0-1.8.7l-.6-1.5a18 18 0 0 1 2.1-.8 8.8 8.8 0 0 1 2.4-.3 5.3 5.3 0 0 1 3.9 1.3 5 5 0 0 1 1.4 3.7v7.6h-1.8v-1.9a5 5 0 0 1-1.7 1.5 5.4 5.4 0 0 1-2.7.6 9.8 9.8 0 0 1-1.7-.2 6.9 6.9 0 0 1-1.5-.7 4.3 4.3 0 0 1-1.1-1.2 3.8 3.8 0 0 1 0-3.4 4.5 4.5 0 0 1 1.1-1.3 6.7 6.7 0 0 1 1.7-.8 7.1 7.1 0 0 1 2.1-.3 13.4 13.4 0 0 1 2.1.1 8.5 8.5 0 0 1 1.7.4v-.4a3 3 0 0 0-1-2.5 3.8 3.8 0 0 0-2.7-.9zm-.6 5.1a2.3 2.3 0 0 0-.9 1.9 2 2 0 0 0 .3 1.1 2.7 2.7 0 0 0 .7.8 3.1 3.1 0 0 0 1 .5 5 5 0 0 0 1.2.2 4.2 4.2 0 0 0 1.6-.3 5.4 5.4 0 0 0 1.3-.7 2.4 2.4 0 0 0 .9-1.1 3.2 3.2 0 0 0 .3-1.4V112a12.4 12.4 0 0 1-1.6-.4 12.3 12.3 0 0 0-2-.2 6.2 6.2 0 0 0-2.8.8zm18.3 5.6h-1.8v-12.4h1.8v2.2a6.5 6.5 0 0 1 1.6-1.7 5.2 5.2 0 0 1 4.6-.3 5.6 5.6 0 0 1 1.5 1 4.2 4.2 0 0 1 .9 1.6 6.5 6.5 0 0 1 .3 2v7.7h-1.8v-7.2a3.7 3.7 0 0 0-.9-2.7 3.4 3.4 0 0 0-2.5-1 4 4 0 0 0-1.5.3 2.5 2.5 0 0 0-1.2.8 5 5 0 0 0-.8 1.2 4.2 4.2 0 0 0-.3 1.6v6.9zm19.9-3.5a1.8 1.8 0 0 0 .6 1.6 2.5 2.5 0 0 0 1.5.5 2.8 2.8 0 0 0 .9-.1l.9-.3v1.6a4.2 4.2 0 0 1-1 .4 4.9 4.9 0 0 1-1.2.1 5.9 5.9 0 0 1-1.4-.2 2.4 2.4 0 0 1-1.1-.6 2.1 2.1 0 0 1-.7-1.1 3.8 3.8 0 0 1-.3-1.6v-7.5h-1.7v-1.6h1.7v-3.8h1.8v3.7h3.9v1.6h-3.9v7.3z"/></g></g></svg>